<?xml version="1.0" standalone="no"?>
<!DOCTYPE svg PUBLIC "-//W3C//DTD SVG 20010904//EN"
 "http://www.w3.org/TR/2001/REC-SVG-20010904/DTD/svg10.dtd">
<svg version="1.0" xmlns="http://www.w3.org/2000/svg"
 width="700.000000pt" height="700.000000pt" viewBox="0 0 700.000000 700.000000"
 preserveAspectRatio="xMidYMid meet">
<metadata>
Created by potrace 1.14, written by Peter Selinger 2001-2017
</metadata>
<g transform="translate(0.000000,700.000000) scale(0.100000,-0.100000)"
fill="#000000" stroke="none">
<path d="M3428 6833 c-26 -10 -43 -27 -57 -55 -11 -23 -18 -45 -15 -49 12 -20
-28 -68 -75 -90 -49 -22 -59 -33 -67 -75 -5 -27 30 -63 77 -78 24 -8 39 -22
52 -47 25 -52 10 -86 -58 -128 -51 -32 -74 -65 -69 -98 1 -7 2 -22 3 -33 1
-25 48 -68 81 -75 40 -9 60 -52 55 -115 -5 -59 -22 -83 -77 -111 -57 -29 -65
-48 -64 -144 l1 -85 -71 0 c-116 0 -150 -17 -272 -140 -201 -201 -387 -310
-625 -365 -154 -35 -362 -36 -494 -1 -61 16 -93 12 -116 -16 -25 -29 -17 -81
25 -166 80 -161 212 -244 412 -258 l93 -7 -1 -381 -1 -381 -215 0 -216 0 -2
48 c-2 68 -9 85 -44 103 -36 18 -70 12 -98 -18 -19 -21 -20 -34 -20 -303 l0
-281 25 -50 c49 -93 113 -122 276 -120 l96 1 -10 -25 c-6 -14 -22 -41 -36 -60
-69 -94 -167 -140 -331 -155 -101 -9 -120 -46 -65 -125 44 -64 134 -126 231
-161 56 -20 139 -26 379 -29 l31 0 2 -350 3 -350 -219 0 -219 0 -2 57 c-1 46
-6 62 -24 81 -34 34 -84 33 -114 -3 l-24 -28 3 -292 3 -292 30 -43 c32 -47 88
-86 132 -95 15 -2 119 -5 231 -5 l203 -1 -2 -468 -3 -467 -145 0 -146 1 -2
285 -1 285 -30 26 c-33 30 -40 30 -89 10 -34 -14 -43 -34 -43 -98 l0 -43 -219
0 -219 0 1 50 c0 39 -5 56 -22 74 -33 35 -77 38 -112 9 l-29 -25 0 -292 0
-292 -39 -22 c-22 -13 -51 -36 -64 -52 -21 -24 -147 -250 -147 -262 0 -2 1188
-4 2640 -4 1452 0 2640 2 2640 4 0 2 -28 56 -62 119 -69 130 -102 173 -153
197 l-35 17 0 293 0 293 -25 23 c-31 29 -79 29 -111 -1 -17 -16 -24 -35 -26
-73 l-3 -51 -217 -3 -218 -2 0 53 c0 44 -4 58 -25 77 -33 31 -80 29 -113 -3
l-24 -25 -1 -284 0 -284 -147 0 -147 0 1 466 1 465 200 2 c116 2 219 8 245 15
56 15 124 81 139 134 7 23 11 149 11 311 0 268 0 272 -22 298 -31 35 -81 37
-114 4 -19 -20 -24 -35 -25 -82 l-2 -57 -219 0 -219 0 2 350 3 350 65 0 c269
2 309 8 414 58 71 35 162 119 184 169 12 31 12 38 -2 59 -11 17 -25 24 -48 25
-17 0 -41 2 -52 4 -11 2 -39 6 -61 10 -130 19 -255 107 -293 206 l-9 24 103
-1 c161 -1 225 29 275 127 19 35 20 60 20 322 0 271 -1 284 -20 305 -28 30
-62 36 -98 18 -33 -17 -43 -38 -44 -88 0 -68 13 -64 -224 -64 l-215 1 2 382 2
383 46 1 c44 0 87 4 141 13 94 15 213 89 271 169 40 54 77 137 85 186 5 34 3
43 -19 65 -27 27 -27 27 -159 2 -273 -53 -585 11 -830 169 -85 55 -109 76
-237 204 -126 125 -157 141 -278 142 -35 0 -63 3 -63 7 -1 4 -2 45 -3 91 -2
82 -3 84 -37 112 -19 16 -39 29 -45 29 -29 0 -58 49 -60 102 -3 63 17 105 56
113 36 8 79 55 83 92 6 47 -20 87 -74 117 -47 26 -60 44 -66 93 -3 28 46 83
75 83 26 0 68 42 66 66 -4 44 -18 62 -66 84 -49 23 -83 65 -77 93 5 24 -23 74
-53 91 -40 24 -115 28 -161 9z m-1260 -3209 l-3 -147 -199 1 c-167 1 -202 4
-215 17 -13 12 -16 43 -17 145 l-2 130 219 0 220 0 -3 -146z m3098 16 c-1
-105 -4 -132 -17 -145 -16 -16 -74 -19 -361 -16 l-58 1 0 145 0 145 219 0 218
0 -1 -130z m-3101 -1890 l0 -145 -190 0 c-104 -1 -198 1 -207 3 -9 2 -21 16
-26 30 -12 31 -13 244 -1 252 4 3 101 5 216 5 l208 0 0 -145z m3101 19 c1 -93
-3 -131 -13 -145 -13 -17 -29 -19 -206 -20 -106 0 -198 2 -204 4 -10 3 -13 40
-13 141 0 76 2 140 4 142 3 2 100 4 218 4 l213 0 1 -126z m-3558 -1113 l-3
-151 -215 0 -215 0 -1 145 c-1 80 0 148 2 151 2 3 100 5 219 5 l216 0 -3 -150z
m4019 -1 l0 -151 -216 0 -216 1 -2 140 c-2 77 -1 145 1 151 3 7 75 10 219 10
l215 0 -1 -151z"/>
</g>
</svg>
